PathFileType	4	(X/Y/Z)	C:/Users/beibeiliu/ov580/test_trc/User1\sequence.19_training_dense_right.trc
DataRate	CameraRate	NumFrames	NumMarkers	Units	OrigDataRate	OrigDataStartFrame	OrigNumFrames
120	120	19	19	mm	120	1	55
Frame#	Time	ThumbCMC			ThumbMCP			ThumbIP			ThumbTip			IndexMCP			IndexPIP			IndexTip			MiddleMCP			MiddlePIP			MiddleTip			RingMCP			RingPIP			RingTip			PinkyMCP			PinkyPIP			PinkyTip			BackHand1			BackHand2			BackHand3	
		X0	Y0	Z0	X1	Y1	Z1	X2	Y2	Z2	X3	Y3	Z3	X4	Y4	Z4	X5	Y5	Z5	X6	Y6	Z6	X7	Y7	Z7	X8	Y8	Z8	X9	Y9	Z9	X10	Y10	Z10	X11	Y11	Z11	X12	Y12	Z12	X13	Y13	Z13	X14	Y14	Z14	X15	Y15	Z15	X16	Y16	Z16	X17	Y17	Z17	X18	Y18	Z18	
0	0	116.182	24.768	105.387	89.1398	6.28889	84.5541	77.3881	-2.99544	59.2359	69.1138	-14.373	39.7781	115.824	37.1148	19.8449	106.557	22.6326	-7.72958	97.3934	6.9337	-24.3041	144.39	30.5904	8.15862	131.785	19.4643	-19.0296	122.739	-5.19827	-41.0047	164.672	21.4882	12.2032	159.007	13.2009	-17.683	151.588	-5.18778	-39.4896	185.791	4.12825	29.0533	193.059	0.590364	9.70713	201.24	2.27762	-9.98427	174.776	30.1872	68.5582	182.498	34.5356	102.904	147.796	46.0928	91.1231	
1	0.00833333	112.854	25.663	100.541	92.6745	6.50508	84.6699	78.5015	-2.31187	57.0317	65.6546	-14.8023	41.855	115.221	37.0998	19.8982	104.493	25.69	-8.093	99.0384	3.60137	-27.1099	140.609	32.5029	9.5066	129.238	18.407	-22.2082	120.958	-5.07227	-42.7723	161.793	23.1169	10.0496	163.231	12.8607	-15.7061	149.972	-3.61553	-39.1579	184.395	4.5097	29.4679	192.944	1.11058	8.30504	197.468	4.05723	-14.6809	173.702	29.9805	68.487	181.618	33.5389	102.208	146.371	47.6203	87.9133	
2	0.0166667	112.799	25.5894	105.857	93.0914	6.51595	82.036	77.4295	-2.14434	58.0435	68.6833	-13.1769	40.242	115.858	36.9855	19.3521	105.232	27.7312	-4.85563	100.996	5.83962	-25.1772	139.869	31.5977	4.60227	129.426	19.0913	-21.8279	120.849	-6.02842	-43.4292	164.903	21.9237	11.1023	159.797	14.7106	-15.1011	151.107	-3.62069	-37.8213	185.288	5.5867	27.9499	192.082	0.396889	10.792	197.417	4.48447	-10.4355	174.809	29.9809	67.2132	184.615	33.4685	98.9219	149.057	47.3164	88.9569	
3	0.025	111.558	26.5841	102.766	90.8295	7.20248	84.7828	77.937	-1.43293	56.4347	66.5559	-13.9837	39.2946	114.287	38.5955	20.9712	104.014	25.4212	-8.29637	101.434	4.79364	-26.7502	144.005	31.0544	5.76305	132.428	17.1167	-23.2994	123.312	-5.94711	-42.1443	163.557	23.6346	9.18988	159.993	13.4571	-19.4454	149.704	-3.05341	-38.4898	185.137	5.80154	28.8938	190.724	1.44939	12.3454	199.884	4.32252	-13.8513	172.959	33.0768	67.2653	183.149	32.3395	101.554	144.822	48.2582	85.8121	
4	0.0333333	110.937	27.934	101.33	92.2299	7.66585	83.3593	77.9007	-1.06619	57.8668	67.7218	-13.8007	38.5665	115.68	37.7166	16.7892	105.445	28.0482	-6.46461	102.181	5.33515	-26.0642	140.974	33.6276	9.28872	130.592	17.6543	-22.6973	121.328	-2.72251	-41.5339	163.81	22.7939	14.0501	157.475	14.2596	-19.5607	149.969	-2.67408	-40.7252	186.266	4.14555	31.4404	192.649	1.65601	7.79239	200.168	3.27322	-14.0589	174.299	31.5432	70.0509	186.937	32.8962	100.642	151.072	46.191	88.3291	
5	0.0416667	112.054	27.0958	100.25	94.9368	7.09444	82.4272	81.2521	-2.06217	61.7164	69.3928	-13.3692	42.0677	113.626	38.5591	19.1499	109.015	25.0678	-8.3091	96.2221	6.59018	-27.6593	143.697	32.739	8.913	134.798	19.4888	-20.7005	121.919	-1.18802	-40.1535	163.181	23.6197	10.7505	162.244	14.7461	-17.263	150.196	-0.0774884	-36.7716	188.633	3.76154	28.2915	191.471	2.7003	11.2843	203.771	4.31622	-14.1627	177.944	29.3564	66.6961	184.066	32.8446	98.4377	150.612	46.5001	84.6725	
6	0.05	113.163	27.585	105.612	91.7816	8.46362	83.3284	81.5601	-1.25895	57.5373	68.7332	-11.9486	40.8615	118.049	38.8694	19.7136	105.039	26.1892	-9.18867	99.3387	5.09451	-28.5235	145.137	32.1814	7.96389	130.942	19.7919	-22.7461	122.715	-2.8733	-42.6026	163.786	24.3649	9.0638	161.185	14.3631	-18.5724	153.024	0.238189	-37.7872	190.661	3.82084	28.9486	194.57	1.26204	12.4263	202.957	4.45799	-12.1323	173.157	32.3694	66.5507	184.798	34.1999	99.1993	150.028	48.8659	86.9024	
7	0.0583333	113.523	29.8923	101.277	93.8379	9.74264	80.4171	77.497	1.26724	60.1329	66.5553	-10.4032	38.6834	117.596	41.2586	19.1278	108.067	29.8828	-5.28085	101.329	6.56549	-28.9147	144.285	34.0018	8.45487	133.393	20.6477	-21.8619	122.643	1.55195	-39.801	165.033	25.8908	10.7068	164.082	14.365	-18.6746	153.348	-1.74663	-40.5709	191.026	5.67504	31.8585	194.027	3.72451	9.04434	202.712	5.4754	-9.38302	178.815	32.1417	65.3103	185.828	34.9204	101.376	148.63	51.6066	89.1855	
8	0.0666667	115.35	28.8889	105.506	93.7309	10.8341	83.7121	79.6763	2.05887	60.1735	67.9693	-9.64815	40.0231	115.219	42.9103	18.7605	108.881	28.0703	-9.10711	101.262	8.9087	-29.0797	144.535	35.1296	6.59418	134.84	22.4712	-20.9785	126.053	-2.29722	-44.9364	169.269	24.7069	10.2375	165.757	16.4975	-18.1108	153.721	4.33768	-37.3183	188.111	8.7087	32.5374	194.006	5.48805	12.8274	205.532	7.59039	-11.5776	176.28	36.5321	66.342	185.102	37.0554	103.267	148.728	51.414	89.6899	
9	0.075	117.867	29.3151	99.8571	94.4932	10.8123	83.7994	82.6189	2.38137	61.4047	69.1771	-9.9505	42.1882	117.443	41.6924	17.4704	108.894	30.8571	-8.15714	104.539	12.0103	-25.9935	146.388	35.9528	7.58168	135.62	21.4268	-22.7015	126.646	3.66045	-40.6816	167.866	27.2611	14.3434	164.189	19.0325	-15.0369	154.888	2.37539	-39.8555	190.342	8.28104	30.8521	194.069	5.32586	9.99365	205.686	5.13897	-8.80698	181.281	34.9081	67.2545	188.071	35.6475	99.7048	152.662	49.4977	89.715	
10	0.0833333	116.963	29.904	100.888	91.9043	10.9678	80.6547	79.0975	3.64379	55.1615	71.4384	-8.88437	40.2486	117.753	43.4217	17.9593	110.84	28.8681	-10.6889	102.562	9.17974	-27.7802	144.356	37.6956	7.49079	134.533	24.6497	-21.4215	123.207	-0.733929	-42.2472	167.111	28.4841	13.451	164.888	16.1897	-21.2565	153.366	-0.520905	-38.7056	189.482	9.86763	26.1769	196.932	4.45148	10.6294	204.197	8.36535	-11.767	180.933	33.7719	66.7526	187.375	36.0202	103.02	149.583	51.3816	87.0701	
11	0.0916667	115.618	30.033	105.307	94.1113	14.6738	81.6753	79.6054	8.87858	58.2859	65.1371	0.408964	41.4389	122.184	45.0493	19.9972	111.247	32.2654	-7.84198	105.904	7.19103	-21.5375	147.39	40.0454	10.7217	135.224	23.7066	-19.7524	125.471	-8.28527	-34.0897	173.081	28.7494	10.8111	164.968	17.3971	-19.0211	152.595	-2.54628	-32.7295	191.687	14.2603	28.2063	199.249	12.1897	12.316	207.707	18.2289	-8.75474	181.819	35.5436	69.339	186.706	34.5934	106.991	152.253	50.827	90.8427	
12	0.1	123.758	32.2818	106.072	97.007	27.9798	84.0788	81.4629	30.7106	62.6374	69.6215	26.7996	46.8116	129.087	55.5402	25.1655	121.505	40.4291	-2.67036	112.844	4.99279	-6.69034	152.935	48.8264	12.503	143.576	27.1518	-12.5962	131.917	-7.20728	-10.4628	177.725	40.032	13.3923	165.974	23.544	-12.2262	153.209	-7.65367	-15.0831	198.705	27.8728	38.8443	206.776	32.3133	16.1647	219.914	41.0949	-0.169916	188.43	43.6052	78.0293	193.232	38.3741	111.055	153.7	52.3311	99.1876	
13	0.108333	132.349	39.7375	112.677	110.186	41.1929	89.3232	88.1697	54.3336	71.1273	71.7957	58.8599	56.622	137.278	70.1916	29.3952	128.614	49.0106	2.82517	123.942	13.4907	16.1674	159.988	62.1949	19.0496	151.653	34.1128	-0.994812	143.243	-0.574949	22.1557	188.304	54.4174	16.7906	173.614	34.0831	-3.04576	161.149	3.44207	10.9034	213.44	49.4986	39.0441	219.819	56.5309	20.4607	229.257	68.9871	7.44065	192.338	55.6579	84.6922	196.987	47.9259	114.191	162.443	62.0787	101.445	
14	0.116667	136.355	52.1564	107.518	112.2	55.801	90.7169	94.2404	68.3104	75.0354	76.653	73.3128	61.973	146.429	76.1325	22.9878	138.888	46.2633	7.15217	137.869	23.1056	30.6628	168.75	69.683	19.9333	157.235	36.28	8.30846	151.852	12.9609	43.3659	191.639	62.8608	18.8724	176.502	31.6048	6.24666	167.69	12.5219	32.4325	218.127	64.4303	42.8816	228.947	69.7102	24.5695	235.654	85.1786	5.4657	199.537	69.174	83.7418	203.071	59.9687	116.802	168.009	76.5304	100.508	
15	0.125	141.261	66.984	108.303	120.847	73.8418	86.8667	104.266	87.3777	69.2837	89.7612	92.8079	59.3952	151.364	76.6956	22.4337	140.54	44.0359	14.0544	138.301	31.6449	46.0145	168.258	63.2396	16.6316	152.673	31.7118	18.2213	152.796	21.0632	54.0254	190.276	53.5707	16.6555	172.397	23.9206	15.1401	163.538	16.7278	48.8353	224.487	56.112	36.1897	230.378	61.0621	12.7007	238.781	68.8455	-4.24298	209.674	72.2218	75.6113	207.834	62.719	112.137	177.617	82.2349	97.44	
16	0.133333	158.59	84.4675	108.285	142.27	99.5593	89.9304	133.883	118.108	70.9495	124.717	130.872	54.8772	150.246	79.198	21.4362	124.162	57.7479	22.7578	129.15	47.7672	55.7434	159.94	53.4496	15.7717	132.022	38.915	25.9088	136.577	37.5336	68.511	171.373	35.1429	15.2102	141.93	22.7268	26.9888	145.047	23.8921	61.149	204.033	22.3535	26.9328	201.838	22.4932	7.35317	208.689	24.9125	-12.7552	209.051	49.4299	70.2014	213.395	47.083	104.091	194.183	78.9638	93.0825	
17	0.141667	188.195	89.7882	100.761	182.359	112.584	85.8543	183.338	126.695	60.8064	182.577	144.58	50.861	155.593	83.5662	17.9177	126.579	78.6744	26.0607	130.413	75.0835	62.5892	147.323	56.1732	17.2548	119.585	58.9249	35.2817	132.764	59.5169	74.1983	150.169	37.83	19.4035	119.07	40.8567	33.5793	127.436	43.6152	65.4727	165.189	7.55605	29.9496	158.015	4.61725	10.5632	159.116	-0.571357	-10.8882	197.143	28.4068	60.3682	207.75	26.7628	99.4815	206.791	60.3433	83.2344	
18	0.15	211.927	80.0027	95.7616	214.945	99.161	74.7428	223.069	113.197	52.3649	231.769	129.473	40.5385	168.865	87.9634	15.1725	140.163	94.6359	25.2872	145.201	91.9097	61.8058	152.615	62.8395	17.5488	127.794	82.6911	36.5276	137.64	76.1226	71.7692	140.61	44.0651	19.7616	117.172	65.9538	37.2056	131.932	68.2581	64.9345	142.933	12.6213	31.9163	130.852	7.88853	19.8785	124	0.606157	-4.72912	186.122	20.028	61.9982	195.741	13.2653	97.1508	208.618	43.6279	75.6861	
